<svg width="32" height="32" viewBox="0 0 32 32" fill="none" xmlns="http://www.w3.org/2000/svg">
<path d="M23.8572 17.3901C26.6513 17.3902 28.9167 19.6555 28.9167 22.4497C28.9167 25.2438 26.6513 27.5092 23.8572 27.5093C21.063 27.5093 18.7977 25.2439 18.7976 22.4497C18.7976 19.6555 21.0629 17.3901 23.8572 17.3901Z" stroke="#101820" stroke-width="1.5" stroke-miterlimit="10"/>
<path d="M23.8576 19.5449V22.4496M23.8576 22.4496V25.3543M23.8576 22.4496H26.7623M23.8576 22.4496H20.9529" stroke="#101820" stroke-width="1.5" stroke-miterlimit="10"/>
<path d="M19.2099 24.7734H18.6289H13.3999H4.10486C3.02519 24.7734 2.68176 24.7233 3.32072 23.6115C4.31362 21.8837 7.11394 19.7143 9.91427 18.9639C11.6571 18.383 11.6571 17.8021 11.0761 15.4783C8.17144 16.6402 5.84768 15.4783 5.84768 14.8974C5.84768 13.7934 8.0289 13.878 8.75239 13.1545C9.17021 12.7367 8.98702 11.6777 8.8512 10.0312C8.60846 7.0884 10.1112 4.44043 13.3999 4.44043C16.6887 4.44043 18.1914 7.0884 17.9486 10.0312C17.8128 11.6777 17.6296 12.7367 18.0474 13.1545C18.7709 13.878 20.9521 13.7934 20.9521 14.8974C20.9521 15.4783 18.6284 16.6402 15.7237 15.4783C15.1427 17.8021 15.1427 18.383 16.8856 18.9639C17.5359 19.1382 18.1863 19.389 18.814 19.6931L19.2099 20.1258" stroke="black" stroke-width="1.5" stroke-linejoin="round"/>
</svg>
